<?xml version="1.0" encoding="utf-8"?>
<!-- Generator: Adobe Illustrator 26.2.1, SVG Export Plug-In . SVG Version: 6.00 Build 0)  -->
<svg version="1.1" id="Layer_1" xmlns="http://www.w3.org/2000/svg" xmlns:xlink="http://www.w3.org/1999/xlink" x="0px" y="0px"
	 viewBox="0 0 711.9 234.8" style="enable-background:new 0 0 711.9 234.8;" xml:space="preserve">
<style type="text/css">
	.st0{fill:#222121;}
	.st1{fill:none;stroke:#000000;stroke-width:3.7864;stroke-linecap:round;stroke-linejoin:round;}
	.st2{fill:#F2AD29;}
	.st3{fill:#4BB2E4;}
</style>
<g>
	<g>
		<g>
			<path class="st0" d="M8.8,130.3L28.9,30h45.3c10.6,0,19.7,1.7,27.4,5.2c7.6,3.4,13.5,8.3,17.6,14.7c4.1,6.4,6.2,13.9,6.2,22.7
				c0,8.9-1.6,16.9-4.7,23.9c-3.1,7.1-7.4,13.1-13,18.2c-5.6,5.1-12.2,8.9-19.8,11.6c-7.6,2.7-16,4-25.2,4H8.8z M47.9,103.9h15.8
				c6,0,11.1-1.3,15.1-3.9c4.1-2.6,7.1-6.2,9.2-10.6c2.1-4.4,3.2-9.4,3.2-14.8c0-3.9-0.8-7.2-2.4-9.9c-1.6-2.7-3.9-4.7-7-6.2
				c-3.1-1.4-6.9-2.1-11.5-2.1H57.4L47.9,103.9z"/>
			<path class="st0" d="M124.7,130.3l15.6-78.4h32.2l-15.6,78.4H124.7z M159.9,45.6c-5.6,0-10.1-1.5-13.4-4.4
				c-3.3-3-4.9-6.6-4.9-10.9c0-5.1,1.9-9.3,5.7-12.6c3.8-3.3,8.8-5,15-5c5.6,0,10.1,1.4,13.4,4.2c3.3,2.8,4.9,6.3,4.9,10.6
				c0,5.3-1.9,9.7-5.7,13.1C171.1,43.9,166.1,45.6,159.9,45.6z"/>
			<path class="st0" d="M237.9,50.5c6.5,0,12.1,1.4,16.7,4.1c4.6,2.7,7.9,6.8,9.9,12.2c2,5.4,2.1,12.2,0.5,20.3l-8.6,43.3H224
				l7.9-39.4c0.9-4.3,0.7-7.6-0.6-9.8c-1.2-2.2-3.6-3.4-7-3.4c-3.6,0-6.7,1.2-9.2,3.7c-2.5,2.4-4.3,6.2-5.3,11.2l-7.6,37.7h-32.4
				l15.6-78.4h30.5l-4.4,21.9l-3.7-6c3.7-6,8.3-10.4,13.8-13.2C227.1,51.9,232.5,50.5,237.9,50.5z"/>
			<path class="st0" d="M315.6,131.7c-8.6,0-16.1-1.5-22.5-4.5c-6.4-3-11.3-7.2-14.8-12.7c-3.5-5.4-5.2-11.8-5.2-19.1
				c0-8.6,2.1-16.3,6.3-23.1c4.2-6.8,10-12.1,17.3-16c7.4-3.9,15.8-5.9,25.2-5.9c8.7,0,16.2,1.5,22.6,4.5c6.3,3,11.3,7.2,14.8,12.6
				c3.5,5.4,5.2,11.8,5.2,19.1c0,8.6-2.1,16.3-6.3,23.1c-4.2,6.8-10,12.1-17.3,16C333.6,129.8,325.2,131.7,315.6,131.7z
				 M317.5,106.5c2.9,0,5.3-0.7,7.4-2.2c2.1-1.5,3.7-3.6,4.9-6.3c1.2-2.7,1.8-5.9,1.8-9.7c0-3.3-1-6.3-3-8.8c-2-2.5-4.9-3.8-8.6-3.8
				c-2.8,0-5.2,0.7-7.4,2.2c-2.1,1.5-3.8,3.6-5,6.3c-1.2,2.7-1.8,5.9-1.8,9.7c0,3.7,1,6.8,3.1,9.1
				C311,105.3,313.9,106.5,317.5,106.5z"/>
			<path class="st0" d="M411.2,131.7c-8.6,0-16.1-1.5-22.5-4.5c-6.4-3-11.4-7.2-14.9-12.7c-3.5-5.4-5.3-11.8-5.3-19.1
				c0-8.6,2.1-16.3,6.3-23.1c4.2-6.8,10-12.1,17.5-16c7.4-3.9,16-5.9,25.6-5.9c9.4,0,17.5,2.1,24.4,6.2c6.9,4.1,11.7,9.7,14.5,16.8
				L429.2,86c-1.3-3.6-3.1-6.2-5.4-7.7c-2.2-1.5-4.8-2.3-7.5-2.3c-2.9,0-5.4,0.7-7.7,2.2c-2.3,1.5-4.1,3.5-5.4,6.1
				c-1.3,2.6-1.9,5.6-1.9,9.2c0,3.7,1,6.8,3.2,9.2c2.1,2.4,5.2,3.6,9.2,3.6c3.2,0,5.9-0.8,8.3-2.3c2.4-1.5,4.5-4.1,6.3-7.7
				l23.6,13.8c-3.8,6.9-9.2,12.2-16.3,16C428.6,129.8,420.4,131.7,411.2,131.7z"/>
			<path class="st0" d="M496.8,131.7c-8.6,0-16.1-1.5-22.5-4.5c-6.4-3-11.3-7.2-14.8-12.7s-5.2-11.8-5.2-19.1
				c0-8.6,2.1-16.3,6.3-23.1c4.2-6.8,10-12.1,17.3-16c7.4-3.9,15.8-5.9,25.2-5.9c8.7,0,16.2,1.5,22.6,4.5c6.3,3,11.3,7.2,14.8,12.6
				c3.5,5.4,5.2,11.8,5.2,19.1c0,8.6-2.1,16.3-6.3,23.1c-4.2,6.8-10,12.1-17.3,16C514.8,129.8,506.4,131.7,496.8,131.7z
				 M498.7,106.5c2.9,0,5.3-0.7,7.4-2.2c2.1-1.5,3.7-3.6,4.9-6.3c1.2-2.7,1.8-5.9,1.8-9.7c0-3.3-1-6.3-3-8.8c-2-2.5-4.9-3.8-8.6-3.8
				c-2.8,0-5.2,0.7-7.4,2.2c-2.2,1.5-3.8,3.6-5,6.3c-1.2,2.7-1.8,5.9-1.8,9.7c0,3.7,1,6.8,3.1,9.1
				C492.2,105.3,495.1,106.5,498.7,106.5z"/>
			<path class="st0" d="M546.3,130.3l15.6-78.4h30.5L588,74.1l-3-6.3c3.2-6.2,7.8-10.6,13.5-13.3c5.8-2.7,12.4-4,19.8-4l-5.7,28.6
				c-1.3-0.2-2.6-0.3-3.7-0.4c-1.1-0.1-2.2-0.1-3.4-0.1c-5.3,0-9.7,1.2-13,3.6c-3.3,2.4-5.5,6.4-6.7,11.9l-7.3,36.2H546.3z"/>
			<path class="st0" d="M678.2,50.5c6.5,0,12.1,1.4,16.7,4.1c4.6,2.7,7.9,6.8,9.9,12.2c2,5.4,2.1,12.2,0.5,20.3l-8.6,43.3h-32.4
				l7.9-39.4c0.9-4.3,0.7-7.6-0.6-9.8c-1.2-2.2-3.6-3.4-7-3.4c-3.6,0-6.7,1.2-9.2,3.7c-2.5,2.4-4.2,6.2-5.3,11.2l-7.6,37.7h-32.4
				l15.6-78.4h30.5l-4.4,21.9l-3.7-6c3.7-6,8.3-10.4,13.8-13.2C667.4,51.9,672.8,50.5,678.2,50.5z"/>
		</g>
		<g>
			<path class="st1" d="M8.8,130.3L28.9,30h45.3c10.6,0,19.7,1.7,27.4,5.2c7.6,3.4,13.5,8.3,17.6,14.7c4.1,6.4,6.2,13.9,6.2,22.7
				c0,8.9-1.6,16.9-4.7,23.9c-3.1,7.1-7.4,13.1-13,18.2c-5.6,5.1-12.2,8.9-19.8,11.6c-7.6,2.7-16,4-25.2,4H8.8z M47.9,103.9h15.8
				c6,0,11.1-1.3,15.1-3.9c4.1-2.6,7.1-6.2,9.2-10.6c2.1-4.4,3.2-9.4,3.2-14.8c0-3.9-0.8-7.2-2.4-9.9c-1.6-2.7-3.9-4.7-7-6.2
				c-3.1-1.4-6.9-2.1-11.5-2.1H57.4L47.9,103.9z"/>
			<path class="st1" d="M124.7,130.3l15.6-78.4h32.2l-15.6,78.4H124.7z M159.9,45.6c-5.6,0-10.1-1.5-13.4-4.4
				c-3.3-3-4.9-6.6-4.9-10.9c0-5.1,1.9-9.3,5.7-12.6c3.8-3.3,8.8-5,15-5c5.6,0,10.1,1.4,13.4,4.2c3.3,2.8,4.9,6.3,4.9,10.6
				c0,5.3-1.9,9.7-5.7,13.1C171.1,43.9,166.1,45.6,159.9,45.6z"/>
			<path class="st1" d="M237.9,50.5c6.5,0,12.1,1.4,16.7,4.1c4.6,2.7,7.9,6.8,9.9,12.2c2,5.4,2.1,12.2,0.5,20.3l-8.6,43.3H224
				l7.9-39.4c0.9-4.3,0.7-7.6-0.6-9.8c-1.2-2.2-3.6-3.4-7-3.4c-3.6,0-6.7,1.2-9.2,3.7c-2.5,2.4-4.3,6.2-5.3,11.2l-7.6,37.7h-32.4
				l15.6-78.4h30.5l-4.4,21.9l-3.7-6c3.7-6,8.3-10.4,13.8-13.2C227.1,51.9,232.5,50.5,237.9,50.5z"/>
			<path class="st1" d="M315.6,131.7c-8.6,0-16.1-1.5-22.5-4.5c-6.4-3-11.3-7.2-14.8-12.7c-3.5-5.4-5.2-11.8-5.2-19.1
				c0-8.6,2.1-16.3,6.3-23.1c4.2-6.8,10-12.1,17.3-16c7.4-3.9,15.8-5.9,25.2-5.9c8.7,0,16.2,1.5,22.6,4.5c6.3,3,11.3,7.2,14.8,12.6
				c3.5,5.4,5.2,11.8,5.2,19.1c0,8.6-2.1,16.3-6.3,23.1c-4.2,6.8-10,12.1-17.3,16C333.6,129.8,325.2,131.7,315.6,131.7z
				 M317.5,106.5c2.9,0,5.3-0.7,7.4-2.2c2.1-1.5,3.7-3.6,4.9-6.3c1.2-2.7,1.8-5.9,1.8-9.7c0-3.3-1-6.3-3-8.8c-2-2.5-4.9-3.8-8.6-3.8
				c-2.8,0-5.2,0.7-7.4,2.2c-2.1,1.5-3.8,3.6-5,6.3c-1.2,2.7-1.8,5.9-1.8,9.7c0,3.7,1,6.8,3.1,9.1
				C311,105.3,313.9,106.5,317.5,106.5z"/>
			<path class="st1" d="M411.2,131.7c-8.6,0-16.1-1.5-22.5-4.5c-6.4-3-11.4-7.2-14.9-12.7c-3.5-5.4-5.3-11.8-5.3-19.1
				c0-8.6,2.1-16.3,6.3-23.1c4.2-6.8,10-12.1,17.5-16c7.4-3.9,16-5.9,25.6-5.9c9.4,0,17.5,2.1,24.4,6.2c6.9,4.1,11.7,9.7,14.5,16.8
				L429.2,86c-1.3-3.6-3.1-6.2-5.4-7.7c-2.2-1.5-4.8-2.3-7.5-2.3c-2.9,0-5.4,0.7-7.7,2.2c-2.3,1.5-4.1,3.5-5.4,6.1
				c-1.3,2.6-1.9,5.6-1.9,9.2c0,3.7,1,6.8,3.2,9.2c2.1,2.4,5.2,3.6,9.2,3.6c3.2,0,5.9-0.8,8.3-2.3c2.4-1.5,4.5-4.1,6.3-7.7
				l23.6,13.8c-3.8,6.9-9.2,12.2-16.3,16C428.6,129.8,420.4,131.7,411.2,131.7z"/>
			<path class="st1" d="M496.8,131.7c-8.6,0-16.1-1.5-22.5-4.5c-6.4-3-11.3-7.2-14.8-12.7s-5.2-11.8-5.2-19.1
				c0-8.6,2.1-16.3,6.3-23.1c4.2-6.8,10-12.1,17.3-16c7.4-3.9,15.8-5.9,25.2-5.9c8.7,0,16.2,1.5,22.6,4.5c6.3,3,11.3,7.2,14.8,12.6
				c3.5,5.4,5.2,11.8,5.2,19.1c0,8.6-2.1,16.3-6.3,23.1c-4.2,6.8-10,12.1-17.3,16C514.8,129.8,506.4,131.7,496.8,131.7z
				 M498.7,106.5c2.9,0,5.3-0.7,7.4-2.2c2.1-1.5,3.7-3.6,4.9-6.3c1.2-2.7,1.8-5.9,1.8-9.7c0-3.3-1-6.3-3-8.8c-2-2.5-4.9-3.8-8.6-3.8
				c-2.8,0-5.2,0.7-7.4,2.2c-2.2,1.5-3.8,3.6-5,6.3c-1.2,2.7-1.8,5.9-1.8,9.7c0,3.7,1,6.8,3.1,9.1
				C492.2,105.3,495.1,106.5,498.7,106.5z"/>
			<path class="st1" d="M546.3,130.3l15.6-78.4h30.5L588,74.1l-3-6.3c3.2-6.2,7.8-10.6,13.5-13.3c5.8-2.7,12.4-4,19.8-4l-5.7,28.6
				c-1.3-0.2-2.6-0.3-3.7-0.4c-1.1-0.1-2.2-0.1-3.4-0.1c-5.3,0-9.7,1.2-13,3.6c-3.3,2.4-5.5,6.4-6.7,11.9l-7.3,36.2H546.3z"/>
			<path class="st1" d="M678.2,50.5c6.5,0,12.1,1.4,16.7,4.1c4.6,2.7,7.9,6.8,9.9,12.2c2,5.4,2.1,12.2,0.5,20.3l-8.6,43.3h-32.4
				l7.9-39.4c0.9-4.3,0.7-7.6-0.6-9.8c-1.2-2.2-3.6-3.4-7-3.4c-3.6,0-6.7,1.2-9.2,3.7c-2.5,2.4-4.2,6.2-5.3,11.2l-7.6,37.7h-32.4
				l15.6-78.4h30.5l-4.4,21.9l-3.7-6c3.7-6,8.3-10.4,13.8-13.2C667.4,51.9,672.8,50.5,678.2,50.5z"/>
		</g>
		<g>
			<path class="st2" d="M2.2,123.7L22.2,23.4h45.3c10.6,0,19.7,1.7,27.4,5.2c7.6,3.4,13.5,8.3,17.6,14.7c4.1,6.4,6.2,13.9,6.2,22.7
				c0,8.9-1.6,16.9-4.7,23.9c-3.1,7.1-7.4,13.1-13,18.2c-5.6,5.1-12.2,8.9-19.8,11.6c-7.6,2.7-16,4-25.2,4H2.2z M41.3,97.3H57
				c6,0,11.1-1.3,15.1-3.9c4.1-2.6,7.1-6.2,9.2-10.6c2.1-4.4,3.2-9.4,3.2-14.8c0-3.9-0.8-7.2-2.4-9.9c-1.6-2.7-3.9-4.7-7-6.2
				c-3.1-1.4-6.9-2.1-11.5-2.1H50.7L41.3,97.3z"/>
			<path class="st2" d="M118.1,123.7l15.6-78.4h32.2l-15.6,78.4H118.1z M153.3,39c-5.6,0-10.1-1.5-13.4-4.4c-3.3-3-4.9-6.6-4.9-10.9
				c0-5.1,1.9-9.3,5.7-12.6c3.8-3.3,8.8-5,15-5c5.6,0,10.1,1.4,13.4,4.2c3.3,2.8,4.9,6.3,4.9,10.6c0,5.3-1.9,9.7-5.7,13.1
				C164.5,37.3,159.5,39,153.3,39z"/>
			<path class="st2" d="M231.2,43.9c6.5,0,12.1,1.4,16.7,4.1c4.6,2.7,7.9,6.8,9.9,12.2c2,5.4,2.1,12.2,0.5,20.3l-8.6,43.3h-32.4
				l7.9-39.4c0.9-4.3,0.7-7.6-0.6-9.8c-1.2-2.2-3.6-3.4-7-3.4c-3.6,0-6.7,1.2-9.2,3.7c-2.5,2.4-4.3,6.2-5.3,11.2l-7.6,37.7h-32.4
				l15.6-78.4h30.5l-4.4,21.9l-3.7-6c3.7-6,8.3-10.4,13.8-13.2C220.5,45.2,225.9,43.9,231.2,43.9z"/>
			<path class="st2" d="M309,125.1c-8.6,0-16.1-1.5-22.5-4.5c-6.4-3-11.3-7.2-14.8-12.7c-3.5-5.4-5.2-11.8-5.2-19.1
				c0-8.6,2.1-16.3,6.3-23.1c4.2-6.8,10-12.1,17.3-16c7.4-3.9,15.8-5.9,25.2-5.9c8.7,0,16.2,1.5,22.6,4.5c6.3,3,11.3,7.2,14.8,12.6
				c3.5,5.4,5.2,11.8,5.2,19.1c0,8.6-2.1,16.3-6.3,23.1c-4.2,6.8-10,12.1-17.3,16C327,123.1,318.6,125.1,309,125.1z M310.9,99.9
				c2.9,0,5.3-0.7,7.4-2.2c2.1-1.5,3.7-3.6,4.9-6.3c1.2-2.7,1.8-5.9,1.8-9.7c0-3.3-1-6.3-3-8.8c-2-2.5-4.9-3.8-8.6-3.8
				c-2.8,0-5.2,0.7-7.4,2.2c-2.1,1.5-3.8,3.6-5,6.3c-1.2,2.7-1.8,5.9-1.8,9.7c0,3.7,1,6.8,3.1,9.1C304.4,98.7,307.2,99.9,310.9,99.9
				z"/>
			<path class="st2" d="M404.6,125.1c-8.6,0-16.1-1.5-22.5-4.5c-6.4-3-11.4-7.2-14.9-12.7c-3.5-5.4-5.3-11.8-5.3-19.1
				c0-8.6,2.1-16.3,6.3-23.1c4.2-6.8,10-12.1,17.5-16c7.4-3.9,16-5.9,25.6-5.9c9.4,0,17.5,2.1,24.4,6.2c6.9,4.1,11.7,9.7,14.5,16.8
				l-27.5,12.6c-1.3-3.6-3.1-6.2-5.4-7.7c-2.2-1.5-4.8-2.3-7.5-2.3c-2.9,0-5.4,0.7-7.7,2.2c-2.3,1.5-4.1,3.5-5.4,6.1
				c-1.3,2.6-1.9,5.6-1.9,9.2c0,3.7,1,6.8,3.2,9.2c2.1,2.4,5.2,3.6,9.2,3.6c3.2,0,5.9-0.8,8.3-2.3c2.4-1.5,4.5-4.1,6.3-7.7
				l23.6,13.8c-3.8,6.9-9.2,12.2-16.3,16C422,123.2,413.8,125.1,404.6,125.1z"/>
			<path class="st2" d="M490.2,125.1c-8.6,0-16.1-1.5-22.5-4.5c-6.4-3-11.3-7.2-14.8-12.7c-3.5-5.4-5.2-11.8-5.2-19.1
				c0-8.6,2.1-16.3,6.3-23.1c4.2-6.8,10-12.1,17.3-16c7.4-3.9,15.8-5.9,25.2-5.9c8.7,0,16.2,1.5,22.6,4.5c6.3,3,11.3,7.2,14.8,12.6
				c3.5,5.4,5.2,11.8,5.2,19.1c0,8.6-2.1,16.3-6.3,23.1c-4.2,6.8-10,12.1-17.3,16C508.2,123.1,499.8,125.1,490.2,125.1z M492.1,99.9
				c2.9,0,5.3-0.7,7.4-2.2c2.1-1.5,3.7-3.6,4.9-6.3c1.2-2.7,1.8-5.9,1.8-9.7c0-3.3-1-6.3-3-8.8c-2-2.5-4.9-3.8-8.6-3.8
				c-2.8,0-5.2,0.7-7.4,2.2c-2.2,1.5-3.8,3.6-5,6.3c-1.2,2.7-1.8,5.9-1.8,9.7c0,3.7,1,6.8,3.1,9.1C485.6,98.7,488.5,99.9,492.1,99.9
				z"/>
			<path class="st2" d="M539.6,123.7l15.6-78.4h30.5l-4.4,22.2l-3-6.3c3.2-6.2,7.8-10.6,13.5-13.3c5.8-2.7,12.4-4,19.8-4L606,72.5
				c-1.3-0.2-2.6-0.3-3.7-0.4c-1.1-0.1-2.2-0.1-3.4-0.1c-5.3,0-9.7,1.2-13,3.6c-3.3,2.4-5.5,6.4-6.7,11.9l-7.3,36.2H539.6z"/>
			<path class="st2" d="M671.6,43.9c6.5,0,12.1,1.4,16.7,4.1c4.6,2.7,7.9,6.8,9.9,12.2c2,5.4,2.1,12.2,0.5,20.3l-8.6,43.3h-32.4
				l7.9-39.4c0.9-4.3,0.7-7.6-0.6-9.8c-1.2-2.2-3.6-3.4-7-3.4c-3.6,0-6.7,1.2-9.2,3.7c-2.5,2.4-4.2,6.2-5.3,11.2l-7.6,37.7h-32.4
				l15.6-78.4h30.5l-4.4,21.9l-3.7-6c3.7-6,8.3-10.4,13.8-13.2C660.8,45.2,666.2,43.9,671.6,43.9z"/>
		</g>
		<g>
			<path class="st1" d="M2.2,123.7L22.2,23.4h45.3c10.6,0,19.7,1.7,27.4,5.2c7.6,3.4,13.5,8.3,17.6,14.7c4.1,6.4,6.2,13.9,6.2,22.7
				c0,8.9-1.6,16.9-4.7,23.9c-3.1,7.1-7.4,13.1-13,18.2c-5.6,5.1-12.2,8.9-19.8,11.6c-7.6,2.7-16,4-25.2,4H2.2z M41.3,97.3H57
				c6,0,11.1-1.3,15.1-3.9c4.1-2.6,7.1-6.2,9.2-10.6c2.1-4.4,3.2-9.4,3.2-14.8c0-3.9-0.8-7.2-2.4-9.9c-1.6-2.7-3.9-4.7-7-6.2
				c-3.1-1.4-6.9-2.1-11.5-2.1H50.7L41.3,97.3z"/>
			<path class="st1" d="M118.1,123.7l15.6-78.4h32.2l-15.6,78.4H118.1z M153.3,39c-5.6,0-10.1-1.5-13.4-4.4c-3.3-3-4.9-6.6-4.9-10.9
				c0-5.1,1.9-9.3,5.7-12.6c3.8-3.3,8.8-5,15-5c5.6,0,10.1,1.4,13.4,4.2c3.3,2.8,4.9,6.3,4.9,10.6c0,5.3-1.9,9.7-5.7,13.1
				C164.5,37.3,159.5,39,153.3,39z"/>
			<path class="st1" d="M231.2,43.9c6.5,0,12.1,1.4,16.7,4.1c4.6,2.7,7.9,6.8,9.9,12.2c2,5.4,2.1,12.2,0.5,20.3l-8.6,43.3h-32.4
				l7.9-39.4c0.9-4.3,0.7-7.6-0.6-9.8c-1.2-2.2-3.6-3.4-7-3.4c-3.6,0-6.7,1.2-9.2,3.7c-2.5,2.4-4.3,6.2-5.3,11.2l-7.6,37.7h-32.4
				l15.6-78.4h30.5l-4.4,21.9l-3.7-6c3.7-6,8.3-10.4,13.8-13.2C220.5,45.2,225.9,43.9,231.2,43.9z"/>
			<path class="st1" d="M309,125.1c-8.6,0-16.1-1.5-22.5-4.5c-6.4-3-11.3-7.2-14.8-12.7c-3.5-5.4-5.2-11.8-5.2-19.1
				c0-8.6,2.1-16.3,6.3-23.1c4.2-6.8,10-12.1,17.3-16c7.4-3.9,15.8-5.9,25.2-5.9c8.7,0,16.2,1.5,22.6,4.5c6.3,3,11.3,7.2,14.8,12.6
				c3.5,5.4,5.2,11.8,5.2,19.1c0,8.6-2.1,16.3-6.3,23.1c-4.2,6.8-10,12.1-17.3,16C327,123.1,318.6,125.1,309,125.1z M310.9,99.9
				c2.9,0,5.3-0.7,7.4-2.2c2.1-1.5,3.7-3.6,4.9-6.3c1.2-2.7,1.8-5.9,1.8-9.7c0-3.3-1-6.3-3-8.8c-2-2.5-4.9-3.8-8.6-3.8
				c-2.8,0-5.2,0.7-7.4,2.2c-2.1,1.5-3.8,3.6-5,6.3c-1.2,2.7-1.8,5.9-1.8,9.7c0,3.7,1,6.8,3.1,9.1C304.4,98.7,307.2,99.9,310.9,99.9
				z"/>
			<path class="st1" d="M404.6,125.1c-8.6,0-16.1-1.5-22.5-4.5c-6.4-3-11.4-7.2-14.9-12.7c-3.5-5.4-5.3-11.8-5.3-19.1
				c0-8.6,2.1-16.3,6.3-23.1c4.2-6.8,10-12.1,17.5-16c7.4-3.9,16-5.9,25.6-5.9c9.4,0,17.5,2.1,24.4,6.2c6.9,4.1,11.7,9.7,14.5,16.8
				l-27.5,12.6c-1.3-3.6-3.1-6.2-5.4-7.7c-2.2-1.5-4.8-2.3-7.5-2.3c-2.9,0-5.4,0.7-7.7,2.2c-2.3,1.5-4.1,3.5-5.4,6.1
				c-1.3,2.6-1.9,5.6-1.9,9.2c0,3.7,1,6.8,3.2,9.2c2.1,2.4,5.2,3.6,9.2,3.6c3.2,0,5.9-0.8,8.3-2.3c2.4-1.5,4.5-4.1,6.3-7.7
				l23.6,13.8c-3.8,6.9-9.2,12.2-16.3,16C422,123.2,413.8,125.1,404.6,125.1z"/>
			<path class="st1" d="M490.2,125.1c-8.6,0-16.1-1.5-22.5-4.5c-6.4-3-11.3-7.2-14.8-12.7c-3.5-5.4-5.2-11.8-5.2-19.1
				c0-8.6,2.1-16.3,6.3-23.1c4.2-6.8,10-12.1,17.3-16c7.4-3.9,15.8-5.9,25.2-5.9c8.7,0,16.2,1.5,22.6,4.5c6.3,3,11.3,7.2,14.8,12.6
				c3.5,5.4,5.2,11.8,5.2,19.1c0,8.6-2.1,16.3-6.3,23.1c-4.2,6.8-10,12.1-17.3,16C508.2,123.1,499.8,125.1,490.2,125.1z M492.1,99.9
				c2.9,0,5.3-0.7,7.4-2.2c2.1-1.5,3.7-3.6,4.9-6.3c1.2-2.7,1.8-5.9,1.8-9.7c0-3.3-1-6.3-3-8.8c-2-2.5-4.9-3.8-8.6-3.8
				c-2.8,0-5.2,0.7-7.4,2.2c-2.2,1.5-3.8,3.6-5,6.3c-1.2,2.7-1.8,5.9-1.8,9.7c0,3.7,1,6.8,3.1,9.1C485.6,98.7,488.5,99.9,492.1,99.9
				z"/>
			<path class="st1" d="M539.6,123.7l15.6-78.4h30.5l-4.4,22.2l-3-6.3c3.2-6.2,7.8-10.6,13.5-13.3c5.8-2.7,12.4-4,19.8-4L606,72.5
				c-1.3-0.2-2.6-0.3-3.7-0.4c-1.1-0.1-2.2-0.1-3.4-0.1c-5.3,0-9.7,1.2-13,3.6c-3.3,2.4-5.5,6.4-6.7,11.9l-7.3,36.2H539.6z"/>
			<path class="st1" d="M671.6,43.9c6.5,0,12.1,1.4,16.7,4.1c4.6,2.7,7.9,6.8,9.9,12.2c2,5.4,2.1,12.2,0.5,20.3l-8.6,43.3h-32.4
				l7.9-39.4c0.9-4.3,0.7-7.6-0.6-9.8c-1.2-2.2-3.6-3.4-7-3.4c-3.6,0-6.7,1.2-9.2,3.7c-2.5,2.4-4.2,6.2-5.3,11.2l-7.6,37.7h-32.4
				l15.6-78.4h30.5l-4.4,21.9l-3.7-6c3.7-6,8.3-10.4,13.8-13.2C660.8,45.2,666.2,43.9,671.6,43.9z"/>
		</g>
	</g>
	<g>
		<g>
			<g>
				<path d="M242.8,228.1c-10.6,0-18.5-2.3-24.2-7c-6.1-5-9.2-12.5-9.2-22.1v-31.7c0-9.6,3.1-17.1,9.2-22.1c5.7-4.7,13.6-7,24.2-7
					h25.4c4.5,0,7.2,1.8,8.7,3.3c1.5,1.5,3.3,4.3,3.3,8.7v12.3c0,4.5-1.8,7.2-3.3,8.7c-0.5,0.5-1,0.9-1.7,1.4
					c4.2,0.1,6.9,1.8,8.3,3.3c1.5,1.5,3.3,4.3,3.3,8.7v31.4c0,4.5-1.8,7.2-3.3,8.7c-1.5,1.5-4.3,3.3-8.7,3.3H242.8z M249.2,177.2
					c0.4-0.5,0.7-0.9,1.1-1.3c0.5-0.5,1-0.9,1.7-1.4h-2.8V177.2z"/>
			</g>
			<g>
				<path d="M338.6,228.1c-3.5,0-6.4-1-8.6-3c-1.7-1.5-3.8-4.3-3.8-9v-5.8H325v5.8c0,4.5-1.8,7.2-3.3,8.7c-1.5,1.5-4.3,3.3-8.7,3.3
					h-14.9c-4.5,0-7.2-1.8-8.7-3.3c-1.5-1.5-3.3-4.2-3.3-8.7v-26.8c0-2.7,0.4-5.7,1.2-9c0.7-3,1.8-6.4,3.3-10.3l8.8-23
					c1-2.8,2.8-5.2,5.2-6.7c2.2-1.4,4.8-2.1,7.8-2.1h27.3c2.9,0,5.5,0.7,7.7,2.1c2.4,1.5,4.2,3.8,5.2,6.7l8.8,23
					c1.5,3.9,2.6,7.2,3.3,10.3c0.8,3.3,1.2,6.3,1.2,9v26.8c0,4.5-1.8,7.2-3.3,8.7c-1.5,1.5-4.3,3.3-8.7,3.3H338.6z"/>
			</g>
			<g>
				<path d="M428.1,228.1c-4.5,0-7.2-1.8-8.7-3.3c-1.5-1.5-3.3-4.2-3.3-8.7v-13.3c-1,0.2-2,0.3-3,0.3H409c-1,0-2-0.1-3-0.3v13.3
					c0,4.5-1.8,7.2-3.3,8.7c-1.5,1.5-4.3,3.3-8.7,3.3h-15.1c-4.5,0-7.2-1.8-8.7-3.3c-1.5-1.5-3.3-4.2-3.3-8.7v-65.8
					c0-4.5,1.8-7.2,3.3-8.7c1.5-1.5,4.3-3.3,8.7-3.3h16.4c2.8,0,5.2,0.7,7.3,2.1c1.8,1.2,3.4,3,4.6,5.2l4.1,7.4c0,0,4-7.4,4.1-7.4
					c1.3-2.2,2.8-4,4.6-5.2c2.1-1.4,4.6-2.1,7.3-2.1h16.5c4.5,0,7.2,1.8,8.7,3.3c1.5,1.5,3.3,4.3,3.3,8.7v65.8
					c0,4.5-1.8,7.2-3.3,8.7c-1.5,1.5-4.3,3.3-8.7,3.3H428.1z"/>
			</g>
			<g>
				<path d="M470.1,228.1c-4.5,0-7.2-1.8-8.7-3.3c-1.5-1.5-3.3-4.2-3.3-8.7v-65.8c0-4.5,1.8-7.2,3.3-8.7c1.5-1.5,4.3-3.3,8.7-3.3
					h47.1c4.5,0,7.2,1.8,8.7,3.3c1.5,1.5,3.3,4.3,3.3,8.7v11.9c0,4.5-1.8,7.2-3.3,8.7c-1.1,1.1-2.8,2.3-5.3,2.9
					c0.3,1,0.4,2.2,0.4,3.5v10.9c0,1.7-0.3,3.1-0.7,4.3c2.7,0.6,4.4,1.9,5.6,3c1.5,1.5,3.3,4.3,3.3,8.7v11.9c0,4.5-1.8,7.2-3.3,8.7
					c-1.5,1.5-4.3,3.3-8.7,3.3H470.1z"/>
			</g>
		</g>
		<g>
			<path class="st3" d="M274.8,219.7h-32c-8.5,0-14.7-1.7-18.8-5.1c-4.1-3.4-6.1-8.6-6.1-15.6v-31.7c0-7,2-12.3,6.1-15.6
				c4.1-3.4,10.4-5.1,18.8-5.1h25.4c1.3,0,2.2,0.3,2.8,0.9c0.6,0.6,0.9,1.5,0.9,2.8v12.3c0,1.3-0.3,2.2-0.9,2.8
				c-0.6,0.6-1.5,0.9-2.8,0.9h-21.1c-2.1,0-3.7,0.4-4.7,1.3c-1,0.8-1.5,2.1-1.5,3.8v24.3c0,1.7,0.4,2.9,1.2,3.8
				c0.8,0.8,1.9,1.2,3.5,1.2h9.9v-15.8c0-1.3,0.3-2.2,0.9-2.8c0.6-0.6,1.5-0.9,2.8-0.9h15.7c1.3,0,2.2,0.3,2.8,0.9
				c0.6,0.6,0.9,1.5,0.9,2.8v31.4c0,1.3-0.3,2.2-0.9,2.8C277,219.4,276.1,219.7,274.8,219.7z"/>
			<path class="st3" d="M316.6,216.1c0,1.3-0.3,2.2-0.9,2.8c-0.6,0.6-1.5,0.9-2.8,0.9h-14.9c-1.3,0-2.2-0.3-2.8-0.9
				c-0.6-0.6-0.9-1.5-0.9-2.8v-26.8c0-2,0.3-4.4,1-7c0.6-2.6,1.6-5.7,3-9.2l8.8-23.1c0.4-1.2,1-2,1.9-2.5c0.8-0.5,1.9-0.8,3.3-0.8
				h27.3c1.3,0,2.4,0.3,3.2,0.8c0.8,0.5,1.5,1.4,1.9,2.5l8.8,23.1c1.4,3.5,2.4,6.6,3,9.2c0.6,2.6,1,5,1,7v26.8
				c0,1.3-0.3,2.2-0.9,2.8c-0.6,0.6-1.5,0.9-2.8,0.9h-15.3c-1.4,0-2.4-0.3-3-0.9c-0.6-0.6-1-1.5-1-2.8v-14.2h-18V216.1z
				 M322.4,167.9l-4.8,15.4h15.9l-4.8-15.4c-0.3-0.6-0.6-1-0.9-1.3c-0.3-0.3-0.7-0.4-1.1-0.4h-2.5c-0.4,0-0.8,0.1-1.1,0.4
				C323,166.9,322.7,167.3,322.4,167.9z"/>
			<path class="st3" d="M393.9,219.7h-15.1c-1.3,0-2.2-0.3-2.8-0.9c-0.6-0.6-0.9-1.5-0.9-2.8v-65.8c0-1.3,0.3-2.2,0.9-2.8
				c0.6-0.6,1.5-0.9,2.8-0.9h16.4c1.1,0,2,0.2,2.7,0.7c0.7,0.5,1.4,1.3,2,2.3l9.1,16.6c0.3,0.6,0.6,1.1,0.9,1.3
				c0.2,0.3,0.6,0.4,1,0.4h0.9c0.4,0,0.7-0.1,1-0.4c0.2-0.3,0.5-0.7,0.9-1.3l9-16.6c0.6-1.1,1.3-1.9,2-2.3c0.7-0.5,1.6-0.7,2.7-0.7
				h16.5c1.3,0,2.2,0.3,2.8,0.9c0.6,0.6,0.9,1.5,0.9,2.8v65.8c0,1.3-0.3,2.2-0.9,2.8c-0.6,0.6-1.5,0.9-2.8,0.9h-15.6
				c-1.3,0-2.2-0.3-2.8-0.9c-0.6-0.6-0.9-1.5-0.9-2.8v-35.8l-6,11.1c-0.6,1.2-1.3,2-2.2,2.5c-0.8,0.5-1.9,0.8-3.2,0.8H409
				c-1.3,0-2.4-0.3-3.2-0.8c-0.8-0.5-1.6-1.3-2.2-2.5l-6-11.1v35.8c0,1.3-0.3,2.2-0.9,2.8C396.2,219.4,395.2,219.7,393.9,219.7z"/>
			<path class="st3" d="M517.3,219.7h-47.1c-1.3,0-2.2-0.3-2.8-0.9c-0.6-0.6-0.9-1.5-0.9-2.8v-65.8c0-1.3,0.3-2.2,0.9-2.8
				c0.6-0.6,1.5-0.9,2.8-0.9h47.1c1.3,0,2.2,0.3,2.8,0.9c0.6,0.6,0.9,1.5,0.9,2.8v11.9c0,1.3-0.3,2.2-0.9,2.8
				c-0.6,0.6-1.5,0.9-2.8,0.9h-28v7.8H509c1.3,0,2.2,0.3,2.8,0.9c0.6,0.6,0.9,1.5,0.9,2.8v10.9c0,1.3-0.3,2.2-0.9,2.8
				c-0.6,0.6-1.5,0.9-2.8,0.9h-19.8v8.7h28c1.3,0,2.2,0.3,2.8,0.9c0.6,0.6,0.9,1.5,0.9,2.8v11.9c0,1.3-0.3,2.2-0.9,2.8
				C519.5,219.4,518.6,219.7,517.3,219.7z"/>
		</g>
	</g>
</g>
</svg>
