<?xml version="1.0" encoding="utf-8"?>
<!-- Generator: Adobe Illustrator 26.2.1, SVG Export Plug-In . SVG Version: 6.00 Build 0)  -->
<svg version="1.1" id="Layer_1" xmlns="http://www.w3.org/2000/svg" xmlns:xlink="http://www.w3.org/1999/xlink" x="0px" y="0px"
	 viewBox="0 0 30 30" style="enable-background:new 0 0 30 30;" xml:space="preserve">
<style type="text/css">
	.st0{fill:#FFFFFF;}
</style>
<g>
	<g>
		<path class="st0" d="M23,28.5H7c-3,0-5.5-2.5-5.5-5.5V7C1.5,4,4,1.5,7,1.5h16c3,0,5.5,2.5,5.5,5.5v16C28.5,26,26,28.5,23,28.5z
			 M7,3C4.8,3,3,4.8,3,7v16c0,2.2,1.8,4,4,4h16c2.2,0,4-1.8,4-4V7c0-2.2-1.8-4-4-4H7z"/>
	</g>
	<g>
		<g>
			<path class="st0" d="M19.1,27.7c-0.5,0.2-0.9-0.1-0.9-0.6c0-0.6,0-1.2,0-1.8c0-0.6,0-1.3,0-1.9c0-0.5-0.2-1-0.6-1.4
				c0,0,0,0-0.1-0.1c0.3,0,0.5-0.1,0.7-0.1c0.9-0.1,1.8-0.4,2.6-1c0.9-0.6,1.5-1.5,1.7-2.6c0.3-1,0.4-2.1,0.1-3.1
				c-0.2-0.7-0.4-1.3-0.9-1.8c-0.1-0.1-0.1-0.2-0.1-0.4c0.3-0.9,0.2-1.8-0.1-2.7C21.4,10,21.3,10,21.1,10c-0.6,0-1.1,0.2-1.6,0.4
				c-0.4,0.2-0.7,0.4-1.1,0.6c-0.2,0.1-0.3,0.1-0.5,0.1c-0.9-0.2-1.8-0.3-2.8-0.3c-0.8,0-1.7,0.1-2.5,0.3c-0.2,0-0.3,0-0.5-0.1
				c-0.6-0.4-1.3-0.8-2-1C9.4,9.9,9.2,10,9.1,10.7c-0.2,0.7-0.2,1.4,0.1,2.1c0.1,0.2,0,0.3-0.1,0.4c-0.8,1-1.1,2.1-1,3.4
				c0.1,0.6,0.1,1.3,0.3,1.9c0.4,1.5,1.4,2.4,2.8,2.9c0.6,0.2,1.2,0.3,1.8,0.4c0.1,0,0.1,0,0.2,0.1c0,0.1-0.1,0.1-0.1,0.2
				c-0.3,0.3-0.5,0.7-0.5,1.1c0,0.2-0.1,0.3-0.3,0.4c-0.9,0.3-1.7,0.3-2.5-0.3c-0.3-0.2-0.5-0.5-0.7-0.8c-0.3-0.5-0.7-0.9-1.3-1
				c-0.2-0.1-0.5-0.1-0.7,0c-0.2,0-0.2,0.1-0.1,0.3c0.1,0.1,0.2,0.2,0.3,0.3c0.7,0.4,1,1,1.3,1.7c0.5,1.1,1.3,1.7,2.5,1.7
				c0.4,0,0.8,0,1.2-0.1c0.2,0,0.3,0,0.3,0.2c0,0.6,0,1.1,0,1.7c0,0.5-0.4,0.8-0.9,0.6l0,0.1l7.4,0V27.7z"/>
		</g>
	</g>
</g>
</svg>
